<?xml version="1.0" encoding="UTF-8" standalone="no"?>
<!-- Generator: Adobe Illustrator 18.0.0, SVG Export Plug-In . SVG Version: 6.00 Build 0)  -->
<svg xmlns:dc="http://purl.org/dc/elements/1.1/" xmlns:cc="http://creativecommons.org/ns#" xmlns:rdf="http://www.w3.org/1999/02/22-rdf-syntax-ns#" xmlns:svg="http://www.w3.org/2000/svg" xmlns="http://www.w3.org/2000/svg" xmlns:sodipodi="http://sodipodi.sourceforge.net/DTD/sodipodi-0.dtd" xmlns:inkscape="http://www.inkscape.org/namespaces/inkscape" version="1.1" id="Layer_1" x="0px" y="0px" width="656.08789" height="800" viewBox="0 0 656.08789 800.00001" enable-background="new 0 0 538 528.3" xml:space="preserve" inkscape:version="0.91 r13725" sodipodi:docname="Drum.svg"><metadata id="metadata281"><rdf:RDF><cc:Work rdf:about=""><dc:format>image/svg+xml</dc:format><dc:type rdf:resource="http://purl.org/dc/dcmitype/StillImage"/><dc:title/></cc:Work></rdf:RDF></metadata><defs id="defs279"/><sodipodi:namedview pagecolor="#ffffff" bordercolor="#666666" borderopacity="1" objecttolerance="10" gridtolerance="10" guidetolerance="10" inkscape:pageopacity="0" inkscape:pageshadow="2" inkscape:window-width="1600" inkscape:window-height="837" id="namedview277" showgrid="false" fit-margin-top="0" fit-margin-left="0" fit-margin-right="0" fit-margin-bottom="0" inkscape:zoom="0.8375" inkscape:cx="328.04395" inkscape:cy="400" inkscape:window-x="-8" inkscape:window-y="-8" inkscape:window-maximized="1" inkscape:current-layer="Layer_1"/><g id="g4767"><path inkscape:connector-curvature="0" style="display:inline;overflow:visible;visibility:visible;fill:#0a328c;fill-opacity:1;fill-rule:evenodd;stroke:#000000;stroke-width:16.29548454;stroke-linecap:round;stroke-linejoin:miter;stroke-miterlimit:4;stroke-dasharray:none;stroke-dashoffset:0;stroke-opacity:1;marker:none;enable-background:accumulate" id="path2539" d="m 325.07619,16.155255 c -174.05602,0 -315.2937642,67.810205 -315.2938931,151.002825 0,14.26665 3.9159261,27.98952 11.6775511,41.07276 37.641726,45.18855 159.859852,78.1188 304.824362,78.1188 135.60237,1.2e-4 251.16741,-28.9307 296.3682,-69.66264 11.39252,-15.57015 17.71766,-32.10814 17.71766,-49.52892 0,-83.192878 -141.23787,-151.002825 -315.29388,-151.002825 z"/><path inkscape:connector-curvature="0" style="display:inline;overflow:visible;visibility:visible;fill:#f1b517;fill-opacity:1;fill-rule:evenodd;stroke:#000000;stroke-width:13.185709;stroke-linecap:round;stroke-linejoin:miter;stroke-miterlimit:4;stroke-dashoffset:0;stroke-opacity:1;marker:none;enable-background:accumulate" id="path2499" d="m 643.16908,178.71463 c 0,0 0,507.00031 0,507.00031 0,59.44617 -141.9596,107.69221 -316.87405,107.69221 -174.91445,0 -316.8739157,-48.24604 -316.8739157,-107.69221 0,0 0,-507.00031 0,-507.00031 0,59.44605 141.9594657,107.69222 316.8739157,107.69222 174.91445,0 316.87405,-48.24617 316.87405,-107.69222 z"/><path inkscape:connector-curvature="0" style="fill:#d20014;fill-opacity:1;fill-rule:evenodd;stroke:#d20014;stroke-width:12.88557434px;stroke-linecap:butt;stroke-linejoin:miter;stroke-opacity:1" id="path3288" d="m 9.3796228,178.83563 c 0,0 0,57.54027 0,77.71612 L 163.20116,748.21693 286.01679,370.10587 420.91264,762.7132 519.6173,392.14162 643.18879,641.26074 c 0,0 0,-137.86972 0,-137.86972 L 528.42665,261.78651 c -12.87333,3.63412 -26.60033,6.74985 -41.07277,9.66418 L 416.08055,545.26914 315.81468,286.34964 c -16.79081,-0.18813 -33.49541,-0.56697 -49.52893,-1.6107 L 165.61721,545.26914 50.45239,231.58595 C 24.424561,215.95227 9.3796228,198.06863 9.3796228,178.83563 Z"/><g transform="matrix(12.885574,0,0,12.885574,-9643.526,-3822.1351)" id="g3851"><path inkscape:connector-curvature="0" style="display:inline;overflow:visible;visibility:visible;fill:#0a328c;fill-opacity:1;fill-rule:evenodd;stroke:#0a328c;stroke-width:1.0232923;stroke-linecap:round;stroke-linejoin:miter;stroke-miterlimit:4;stroke-dashoffset:0;stroke-opacity:1;marker:none;enable-background:accumulate" id="use3284" d="m 798.31097,342.49061 c 0,0 0,7.34635 0,7.34635 0,4.61339 -11.01694,8.35758 -24.59138,8.35758 -13.57444,0 -24.59137,-3.74419 -24.59137,-8.35758 0,0 0,-7.34635 0,-7.34635 0,4.61338 11.01693,8.35758 24.59137,8.35758 13.57444,0 24.59138,-3.7442 24.59138,-8.35758 z"/><path inkscape:connector-curvature="0" style="display:inline;overflow:visible;visibility:visible;fill:#f1b517;fill-opacity:1;fill-rule:evenodd;stroke:#000000;stroke-width:1.0232923;stroke-linecap:round;stroke-linejoin:miter;stroke-miterlimit:4;stroke-dashoffset:0;stroke-opacity:1;marker:none;enable-background:accumulate" id="use2504" transform="translate(520,0)" d="m 263.84375,350.09375 c -1.99937,0.30827 -4.1336,0.53925 -6.375,0.65625 l 0.0625,7.34375 c 2.24203,-0.11901 4.37638,-0.34583 6.375,-0.65625 l -0.0625,-7.34375 z"/><path inkscape:connector-curvature="0" style="display:inline;overflow:visible;visibility:visible;fill:#f1b517;fill-opacity:1;fill-rule:evenodd;stroke:#000000;stroke-width:1.0232923;stroke-linecap:round;stroke-linejoin:miter;stroke-miterlimit:4;stroke-dashoffset:0;stroke-opacity:1;marker:none;enable-background:accumulate" id="use2509" transform="translate(520,0)" d="m 237.65625,348.8125 -0.0625,7.3125 c 1.89776,0.56268 4.03229,1.03002 6.375,1.375 l 0,-7.34375 c -2.31513,-0.34092 -4.43113,-0.78996 -6.3125,-1.34375 z"/><path inkscape:connector-curvature="0" style="display:inline;overflow:visible;visibility:visible;fill:#f1b517;fill-opacity:1;fill-rule:evenodd;stroke:#000000;stroke-width:1.0232923;stroke-linecap:round;stroke-linejoin:miter;stroke-miterlimit:4;stroke-dashoffset:0;stroke-opacity:1;marker:none;enable-background:accumulate" id="use2514" transform="translate(520,0)" d="m 229.125,342.5 c 0,0 0,7.34373 0,7.34375 0,1.37005 0.99709,2.63982 2.71875,3.78125 l 0.125,-7.25 c -1.80676,-1.16307 -2.84375,-2.46914 -2.84375,-3.875 z"/><path inkscape:connector-curvature="0" style="display:inline;overflow:visible;visibility:visible;fill:#f1b517;fill-opacity:1;fill-rule:evenodd;stroke:#000000;stroke-width:1.0232923;stroke-linecap:round;stroke-linejoin:miter;stroke-miterlimit:4;stroke-dashoffset:0;stroke-opacity:1;marker:none;enable-background:accumulate" id="use2519" transform="translate(520,0)" d="m 278.3125,343.28125 -0.125,0.0312 c -0.43072,1.49114 -2.03693,2.87405 -4.46875,4.03125 l 0.0312,7.3125 c 2.8523,-1.36467 4.5625,-3.01233 4.5625,-4.8125 0,0 0,-5.31431 0,-6.5625 z"/></g><path inkscape:connector-curvature="0" style="display:inline;overflow:visible;visibility:visible;fill:none;stroke:#000000;stroke-width:13.185709;stroke-linecap:round;stroke-linejoin:miter;stroke-miterlimit:4;stroke-dashoffset:0;stroke-opacity:1;marker:none;enable-background:accumulate" id="use3847" d="m 643.16908,182.02506 c 0,0 0,503.68988 0,503.68988 0,59.44617 -141.9596,107.69221 -316.87405,107.69221 -174.91445,0 -316.8739157,-48.24604 -316.8739157,-107.69221 0,0 0,-503.68988 0,-503.68988"/><path inkscape:connector-curvature="0" style="display:inline;overflow:visible;visibility:visible;fill:#ffffff;fill-opacity:1;fill-rule:evenodd;stroke:#ffffff;stroke-width:13.52125454;stroke-linecap:round;stroke-linejoin:miter;stroke-miterlimit:4;stroke-dasharray:none;stroke-dashoffset:0;stroke-opacity:1;marker:none;enable-background:accumulate" id="use3273" d="m 571.44083,145.61237 c 0,35.99591 -109.7556,65.1764 -245.14585,65.1764 -135.39037,0 -245.145961,-29.18049 -245.145961,-65.1764 0,-35.99591 109.755591,-65.1764 245.145961,-65.1764 135.39025,0 245.14585,29.18049 245.14585,65.1764 z"/><path inkscape:connector-curvature="0" style="display:inline;overflow:visible;visibility:visible;fill:#f1b517;fill-opacity:1;fill-rule:evenodd;stroke:#000000;stroke-width:16.29548454;stroke-linecap:round;stroke-linejoin:miter;stroke-miterlimit:4;stroke-dasharray:none;stroke-dashoffset:0;stroke-opacity:1;marker:none;enable-background:accumulate" id="use2541" d="m 246.15206,193.73457 10.87221,89.79635 c 21.27601,1.60554 43.38624,2.74192 66.03856,2.81872 l 16.10697,-92.61507 -93.01774,0 z"/><path inkscape:connector-curvature="0" style="display:inline;overflow:visible;visibility:visible;fill:#f1b517;fill-opacity:1;fill-rule:evenodd;stroke:#000000;stroke-width:16.29548454;stroke-linecap:round;stroke-linejoin:miter;stroke-miterlimit:4;stroke-dasharray:none;stroke-dashoffset:0;stroke-opacity:1;marker:none;enable-background:accumulate" id="use2546" d="m 530.44004,171.99017 -63.21985,17.71766 4.02675,84.56158 c 21.49764,-3.77431 41.72477,-8.40977 59.99845,-13.69092 l -0.80535,-88.58832 z"/><path inkscape:connector-curvature="0" style="display:inline;overflow:visible;visibility:visible;fill:#f1b517;fill-opacity:1;fill-rule:evenodd;stroke:#000000;stroke-width:16.29548454;stroke-linecap:round;stroke-linejoin:miter;stroke-miterlimit:4;stroke-dasharray:none;stroke-dashoffset:0;stroke-opacity:1;marker:none;enable-background:accumulate" id="use2551" d="m 155.95305,34.908275 c -17.93389,5.485132 -34.70743,11.87032 -49.9316,18.925687 l 8.85883,67.821928 40.26742,-13.28825 0.80535,-73.459365 z"/><path inkscape:connector-curvature="0" style="display:inline;overflow:visible;visibility:visible;fill:#f1b517;fill-opacity:1;fill-rule:evenodd;stroke:#000000;stroke-width:16.29548454;stroke-linecap:round;stroke-linejoin:miter;stroke-miterlimit:4;stroke-dasharray:none;stroke-dashoffset:0;stroke-opacity:1;marker:none;enable-background:accumulate" id="use2556" d="m 325.07621,8.147773 c -8.43232,0 -16.69984,0.4935175 -24.9658,0.8053484 L 313.80133,93.89431 355.67944,93.088961 372.18909,10.161144 C 356.79095,9.0504075 341.11668,8.147773 325.07621,8.147773 Z"/><path inkscape:connector-curvature="0" style="display:inline;overflow:visible;visibility:visible;fill:#f1b517;fill-opacity:1;fill-rule:evenodd;stroke:#000000;stroke-width:16.29548454;stroke-linecap:round;stroke-linejoin:miter;stroke-miterlimit:4;stroke-dasharray:none;stroke-dashoffset:0;stroke-opacity:1;marker:none;enable-background:accumulate" id="use2561" d="m 510.30633,38.141137 -8.45616,74.253253 47.91823,17.55646 5.23477,-72.884026 C 541.39484,50.109902 526.4258,43.769556 510.30633,38.141137 Z"/><path inkscape:connector-curvature="0" style="fill:#f1b517;fill-opacity:1;fill-rule:evenodd;stroke:#000000;stroke-width:12.88557434px;stroke-linecap:butt;stroke-linejoin:miter;stroke-opacity:1" id="path3858" d="M 58.674952,237.57039 71.441206,145.07697 6.6475145,108.70576 8.5744232,213.96544 58.674952,237.57039 Z"/><path inkscape:connector-curvature="0" style="fill:#f1b517;fill-opacity:1;fill-rule:evenodd;stroke:#000000;stroke-width:12.88557434px;stroke-linecap:butt;stroke-linejoin:miter;stroke-opacity:1" id="path3866" d="m 640.97945,217.62275 2.8905,-92.49059 -60.69711,18.78717 57.80661,73.70342 z"/></g></svg>