<?xml version="1.0" encoding="UTF-8"?>
<svg xmlns:rdf="http://www.w3.org/1999/02/22-rdf-syntax-ns#" xmlns="http://www.w3.org/2000/svg" xmlns:cc="http://creativecommons.org/ns#" xmlns:xlink="http://www.w3.org/1999/xlink" xmlns:dc="http://purl.org/dc/elements/1.1/" xmlns:svg="http://www.w3.org/2000/svg" xmlns:inkscape="http://www.inkscape.org/namespaces/inkscape" xmlns:sodipodi="http://sodipodi.sourceforge.net/DTD/sodipodi-0.dtd" xmlns:ns1="http://sozi.baierouge.fr" id="svg2" viewBox="0 0 294.08 400.02" version="1.1">
  <title id="title4190">Ladybug</title>
  <defs id="defs4">
    <linearGradient id="linearGradient4174" y2="571.78" gradientUnits="userSpaceOnUse" x2="282.72" y1="500.99" x1="218.73">
      <stop id="stop3775" stop-color="#f30000" offset="0"/>
      <stop id="stop3777" stop-color="#820000" offset="1"/>
    </linearGradient>
    <radialGradient id="radialGradient4176" gradientUnits="userSpaceOnUse" cy="415.59" cx="155.81" gradientTransform="matrix(.88468 1.103 -.98356 .78887 426.73 -84.114)" r="5.2188">
      <stop id="stop3821" stop-color="#e3e3e3" offset="0"/>
      <stop id="stop3823" offset="1"/>
    </radialGradient>
  </defs>
  <g id="layer1" transform="translate(-191.64 -201.38)">
    <g id="g4103" transform="matrix(2.5917 0 0 2.5602 -304.27 -938.22)">
      <g id="g4060" stroke="#000" stroke-width="2" fill="none">
        <path id="path4032" d="m230.06 488.02-8.8027-9.2247c-0.7982-0.83647-1.6132-1.6718-2.5796-2.3066-0.96635-0.63482-2.0859-1.0611-3.241-1.1126s-2.3303 0.28112-3.2628 0.96467c-0.93251 0.68355-1.6086 1.7101-1.8629 2.838"/>
        <path id="path4048" d="m265.94 488.02 8.8027-9.2247c0.7982-0.83647 1.6132-1.6718 2.5796-2.3066 0.96635-0.63482 2.0859-1.0611 3.241-1.1126s2.3303 0.28112 3.2628 0.96467c0.93251 0.68355 1.6086 1.7101 1.8629 2.838"/>
      </g>
      <g id="g4064" stroke="#000" stroke-width="2" fill="none">
        <path id="path4052" d="m221.43 494.29-8.8027 2.3245c-1.8027 0.47605-3.6328 0.91415-5.4969 0.95391-1.8641 0.0397-3.7398-0.30628-5.4493-1.0505"/>
        <path id="path4054" d="m273.77 494.29 8.8027 2.3245c1.8027 0.47605 3.6328 0.91416 5.4969 0.95391 1.8641 0.0398 3.7398-0.30628 5.4493-1.0505"/>
      </g>
      <g id="g4088" stroke="#000" stroke-width="2" fill="none">
        <path id="path4070" d="m211.9 569.54-8.8027-5.9197c-0.85331-0.57384-1.7152-1.1439-2.6506-1.5709-0.93546-0.42702-1.9444-0.70898-2.9718-0.75216-1.0274-0.0432-2.0673 0.15485-2.9953 0.5978-0.92802 0.44295-1.7395 1.1284-2.3284 1.9713"/>
        <path id="path4072" d="m284.24 569.54 8.8027-5.9197c0.85331-0.57384 1.7152-1.1439 2.6506-1.5709 0.93546-0.42702 1.9444-0.70898 2.9718-0.75217 1.0274-0.0432 2.0673 0.15485 2.9953 0.5978 0.92802 0.44295 1.7395 1.1284 2.3284 1.9713"/>
      </g>
      <g id="g3984" fill-rule="evenodd">
        <g id="g3929">
          <g id="g3791">
            <path id="path3766" stroke="#000" stroke-width="2.7184" stroke-linecap="square" d="m265.64 484.68c0-8.8827-7.898-16.084-17.641-16.084-9.7427 0-17.641 7.2008-17.641 16.084 0 0 11.489-5.2391 17.641-5.2391 6.1514 0 17.641 5.2391 17.641 5.2391z"/>
            <g id="g3787">
              <path id="path2996" d="m290 540.86a42 59.5 0 1 1 -84 0 42 59.5 0 1 1 84 0z" stroke="#000" stroke-linecap="square" stroke-width="2" fill="url(#linearGradient4174)"/>
              <path id="path3781" d="m255.03 597.99c-1.9856 2.6719-7.5213 5.7219-14.051 0l7.44-116.06z"/>
            </g>
          </g>
          <path id="path3797" d="m164.28 419.53a5.2188 5.2188 0 1 1 -10.438 0 5.2188 5.2188 0 1 1 10.438 0z" transform="translate(64.44 90.761)"/>
          <path id="path3799" d="m164.28 419.53a5.2188 5.2188 0 1 1 -10.438 0 5.2188 5.2188 0 1 1 10.438 0z" transform="translate(115.72 139.32)"/>
          <path id="path3799-1-4" d="m164.28 419.53a5.2188 5.2188 0 1 1 -10.438 0 5.2188 5.2188 0 1 1 10.438 0z" transform="matrix(1.3043 0 0 1.3043 61.412 -31.476)" stroke="#000" stroke-width=".76667" fill="url(#radialGradient4176)"/>
          <path id="path3861" d="m164.28 419.53a5.2188 5.2188 0 1 1 -10.438 0 5.2188 5.2188 0 1 1 10.438 0z" transform="matrix(1.3043 0 0 1.3043 17.846 -6.5169)" stroke="#000" stroke-width=".76667" fill="url(#radialGradient4176)"/>
          <path id="path3799-1-5" d="m164.28 419.53a5.2188 5.2188 0 1 1 -10.438 0 5.2188 5.2188 0 1 1 10.438 0z" transform="matrix(.73913 0 0 .73913 163.79 222.67)" stroke="#000" stroke-width="1.3529" fill="url(#radialGradient4176)"/>
          <path id="path3882" d="m164.28 419.53a5.2188 5.2188 0 1 1 -10.438 0 5.2188 5.2188 0 1 1 10.438 0z" transform="matrix(.73913 0 0 .73913 117.05 259.88)" stroke="#000" stroke-width="1.3529" fill="url(#radialGradient4176)"/>
          <path id="path3886" d="m164.28 419.53a5.2188 5.2188 0 1 1 -10.438 0 5.2188 5.2188 0 1 1 10.438 0z" transform="matrix(.97368 0 0 .97368 81.561 115.19)" stroke="#000" stroke-width=".37705" fill="url(#radialGradient4176)"/>
          <path id="path3890" d="m164.28 419.53a5.2188 5.2188 0 1 1 -10.438 0 5.2188 5.2188 0 1 1 10.438 0z" transform="matrix(.55405 0 0 .55405 175.99 308.48)" stroke="#000" stroke-width=".37705" fill="url(#radialGradient4176)"/>
          <path id="path3894" d="m164.28 419.53a5.2188 5.2188 0 1 1 -10.438 0 5.2188 5.2188 0 1 1 10.438 0z" transform="matrix(1.0156 0 0 1.0156 105.06 146.37)" stroke="#000" stroke-width=".37705" fill="url(#radialGradient4176)"/>
        </g>
        <g id="g3925" transform="translate(49.234 84.408)" stroke="#c3c3c3" stroke-linecap="square" stroke-width="1.3392" fill="#e3e3e3">
          <path id="path3909" d="m160.65 402.29a7.034 3.4035 0 1 1 -14.068 0 7.034 3.4035 0 1 1 14.068 0z" transform="matrix(-.53768 -.35045 -.27896 .53325 401.1 228.7)"/>
          <path id="path3911" d="m160.65 402.29a7.034 3.4035 0 1 1 -14.068 0 7.034 3.4035 0 1 1 14.068 0z" transform="matrix(.53768 -.35045 .27896 .53325 -3.5707 228.7)"/>
        </g>
      </g>
      <g id="g3976" transform="translate(2.4598 9.2609)">
        <g id="g3952" transform="translate(9.5299 15.656)">
          <path id="path3945" d="m226 446.53s-5.5203-7.2372-6.7464-11.597c-0.83316-2.9627-0.24095-9.2778-0.24095-9.2778" stroke="#000" stroke-width="1px" fill="none"/>
          <path id="path3950" d="m127.52 409.09a2.9497 2.9497 0 1 1 -5.8995 0 2.9497 2.9497 0 1 1 5.8995 0z" transform="translate(94.845 14.068)" fill-rule="evenodd"/>
        </g>
        <g id="g3956" transform="matrix(-1 0 0 1 481.55 15.656)">
          <path id="path3958" d="m226 446.53s-5.5203-7.2372-6.7464-11.597c-0.83316-2.9627-0.24095-9.2778-0.24095-9.2778" stroke="#000" stroke-width="1px" fill="none"/>
          <path id="path3960" d="m127.52 409.09a2.9497 2.9497 0 1 1 -5.8995 0 2.9497 2.9497 0 1 1 5.8995 0z" transform="translate(94.845 14.068)" fill-rule="evenodd"/>
        </g>
      </g>
      <path id="path4092" stroke-linejoin="round" d="m228.58 490.99c-29.404 32.892-16.407 71.01-13.311 75.176" stroke="#f37171" stroke-linecap="round" stroke-width="2" fill="none"/>
      <path id="path4098" stroke-linejoin="round" d="m277.21 577.44c4.6627-6.9185 7.7742-13.93 8.6704-21.074" stroke="#610000" stroke-linecap="round" stroke-width="1px" fill="#610000"/>
    </g>
  </g>
  <metadata>
    <rdf:RDF>
      <cc:Work>
        <dc:format>image/svg+xml</dc:format>
        <dc:type rdf:resource="http://purl.org/dc/dcmitype/StillImage"/>
        <cc:license rdf:resource="http://creativecommons.org/licenses/publicdomain/"/>
        <dc:publisher>
          <cc:Agent rdf:about="http://openclipart.org/">
            <dc:title>Openclipart</dc:title>
          </cc:Agent>
        </dc:publisher>
        <dc:title>Ladybug</dc:title>
        <dc:date>2013-10-30T09:30:11</dc:date>
        <dc:description>Ladybug</dc:description>
        <dc:source>https://openclipart.org/detail/186796/ladybug-by-arvin61r58-186796</dc:source>
        <dc:creator>
          <cc:Agent>
            <dc:title>Arvin61r58</dc:title>
          </cc:Agent>
        </dc:creator>
        <dc:subject>
          <rdf:Bag>
            <rdf:li>beetle</rdf:li>
            <rdf:li>bug</rdf:li>
            <rdf:li>coccinellidae</rdf:li>
            <rdf:li>insect</rdf:li>
            <rdf:li>lady bug</rdf:li>
            <rdf:li>ladybug</rdf:li>
            <rdf:li>nature</rdf:li>
          </rdf:Bag>
        </dc:subject>
      </cc:Work>
      <cc:License rdf:about="http://creativecommons.org/licenses/publicdomain/">
        <cc:permits rdf:resource="http://creativecommons.org/ns#Reproduction"/>
        <cc:permits rdf:resource="http://creativecommons.org/ns#Distribution"/>
        <cc:permits rdf:resource="http://creativecommons.org/ns#DerivativeWorks"/>
      </cc:License>
    </rdf:RDF>
  </metadata>
</svg>