<?xml version="1.0" encoding="UTF-8"?>
<svg xmlns:rdf="http://www.w3.org/1999/02/22-rdf-syntax-ns#" xmlns="http://www.w3.org/2000/svg" xmlns:cc="http://creativecommons.org/ns#" xmlns:xlink="http://www.w3.org/1999/xlink" xmlns:dc="http://purl.org/dc/elements/1.1/" xmlns:svg="http://www.w3.org/2000/svg" xmlns:inkscape="http://www.inkscape.org/namespaces/inkscape" xmlns:sodipodi="http://sodipodi.sourceforge.net/DTD/sodipodi-0.dtd" xmlns:ns1="http://sozi.baierouge.fr" id="svg2" viewBox="0 0 500 349.99" version="1.1">
  <title id="title3129">Pumpkin</title>
  <defs id="defs4">
    <linearGradient id="linearGradient3125" y2="90.368" gradientUnits="userSpaceOnUse" x2="317.79" gradientTransform="matrix(1.5595 0 0 1.7528 7.8782 36.925)" y1="113.07" x1="2.998">
      <stop id="stop3025" stop-color="#f37100" offset="0"/>
      <stop id="stop3027" stop-color="#f3a251" offset="1"/>
    </linearGradient>
    <linearGradient id="linearGradient3127" y2="359.1" gradientUnits="userSpaceOnUse" x2="399.34" gradientTransform="translate(111,-124)" y1="359.1" x1="-105.66">
      <stop id="stop3099" stop-color="#c36100" offset="0"/>
      <stop id="stop3101" stop-color="#e36100" offset="1"/>
    </linearGradient>
  </defs>
  <g id="layer1" transform="translate(-2.3436 -40.111)">
    <g id="g3115" transform="translate(-5 -11)">
      <g id="g3105" stroke="#250" transform="translate(-2,2)">
        <path id="path3899" d="m231.12 121.15c-0.30646 0.15056-1.4207-5.6866-1.8653-3.8851-0.22471-2.9788-1.7076-4.9594-2.5666-6.68-0.3474-4.6117-0.4415-6.293-0.75119-10.886-0.92657-2.2329 1.6812-2.5508 1.7254-5.5441-2.4848 1.2522 0.81501-2.4154 0.1338-2.3862-1.1517-2.0976 2.3698-2.4703 1.1123-4.5778-0.71443-2.9375-4.6446-10.251-5.6238-13.036-0.12554-3.7497 0.70073-8.1093-0.84777-11.03-0.053-2.6834-7.5111-5.4911-7.2636-7.2376 1.4393-0.36257-4.6656-3.3593-3.9057-4.7009 1.5848-2.7229 11.774 0.6084 13.903-0.27656 5.1739-0.05679 2.8583 3.895 8.0321 3.8325 2.0888 0.6792 3.1246 5.3946 3.0382 8.7888 0.13739 1.9448-1.8058 0.81327 1.6784 4.852-2.0828 4.6183 4.9953 2.3817 4.6939 5.6721 0.19316 2.5049 1.3513 3.6661 0.80391 6.3389 1.6356 2.9641-1.1081 7.3923 1.1082 10.324 1.7014 2.1559-0.25816 7.7208 2.1815 9.5607 1.2016 2.1387 2.1186 4.4688 2.6878 7.1816 1.5258 4.4248 2.0517 14.442 0.35166 13.974-2.6011-1.3368-1.5265 0.26336-3.8946 1.077-1.7628 0.16406-1.0528 1.6697-6.3783 1.2452-0.0794 1.551-4.8434-2.4351-4.0953 0.54928 1.4987 0.25484-0.69825-1.356-1.829-1.3369z" stroke-width="1.9591px" fill="#338000"/>
        <path id="path5738" d="m236.46 123.17c0.20241-0.30335 0.43369-0.5849 0.60726-0.91005 0.0398-0.0746 0-0.77946 0-0.91005v-0.22752c0-0.0758 0.0303-0.15968 0-0.22751-0.0427-0.0959-0.15974-0.13158-0.20243-0.22751-0.0809-0.18201 0.0809-0.50053 0-0.68254-0.0302-0.0678-0.13489 0-0.20242 0-0.0675-0.15167-0.1547-0.29415-0.20241-0.45502-0.0214-0.072 0.0214-0.15557 0-0.22752-0.0477-0.16087-0.1547-0.29415-0.20242-0.45502-0.0214-0.072 0.0302-0.15968 0-0.22751-0.0427-0.0959-0.17225-0.12577-0.20243-0.22752-0.0427-0.14388 0.0427-0.31113 0-0.45502-0.0303-0.10175-0.15976-0.13158-0.20242-0.22751-0.0303-0.0678 0-0.15168 0-0.22752-0.0675-0.15167-0.11868-0.31392-0.20243-0.45502-0.0529-0.0892-0.15974-0.13158-0.20242-0.22751-0.0303-0.0678 0.0214-0.15557 0-0.22752-0.57344-1.289 0.0755 0.33916-0.20243-0.91005-0.0366-0.16451-0.1547-0.29415-0.20241-0.45502-0.0214-0.072 0.0301-0.15968 0-0.22751-0.0427-0.0959-0.17225-0.12577-0.20242-0.22752-0.0853-0.28778 0.0853-0.62226 0-0.91005-0.0303-0.10175-0.17225-0.12576-0.20243-0.22751-0.0387-0.13036 0-0.92397 0-1.1376 0-0.11898-0.0267-0.85023 0-0.91005 0.18633-0.41885 0.42093-0.0362 0.60726-0.45503 0.0226-0.051 0-0.85598 0-0.91005v-4.0953c0-0.37919 0.0661-0.76574 0-1.1376-0.0296-0.16629-0.16582-0.29051-0.20241-0.45503-0.0327-0.14715 0.0427-0.31113 0-0.45502-0.0302-0.10175-0.14955-0.13828-0.20242-0.22752-0.0837-0.1411-0.15471-0.29414-0.20243-0.45502-0.0214-0.072 0.0164-0.15393 0-0.22751-0.0518-0.23266-0.16735-0.44599-0.20242-0.68254-0.0332-0.22442 0.0398-0.45944 0-0.68254-0.0716-0.4025-0.50508-0.79298-0.60728-1.1376-0.0639-0.21584 0.0491-0.46182 0-0.68254-0.0231-0.10405-0.17223-0.12576-0.20241-0.22751-0.0427-0.14389 0.0604-0.31936 0-0.45502-0.0302-0.06783-0.1547 0.05362-0.20242 0-0.0667-0.075 0.0488-0.74541 0-0.91005-0.0302-0.10175-0.17225-0.12576-0.20242-0.22751-0.0427-0.14389 0-0.30335 0-0.45502 0-0.07584 0.0302-0.15968 0-0.22751-0.0427-0.09593-0.15976-0.13158-0.20243-0.22751-0.0302-0.06783 0-0.15167 0-0.22751 0-0.15167 0.0427-0.31113 0-0.45502-0.0302-0.10175-0.17225-0.12576-0.20242-0.22751-0.0427-0.14389 0.0603-0.31936 0-0.45502-0.0303-0.06783-0.15471 0.05362-0.20243 0-0.0477-0.05362 0-0.15167 0-0.22751v-10.01c0-0.22751 0.0641-0.4667 0-0.68254-0.0769-0.2594-0.29604-0.43797-0.40483-0.68254-0.5483-1.2325 0.1271-0.11109-0.20243-1.5926-0.0731-0.32903-0.33166-0.58102-0.40485-0.91005-0.15743-0.70782 0.11806-0.92901 0-1.5926-0.29295-1.6463-0.20242 1.0398-0.20242-1.1376v-1.1376c0-0.07584 0.0477-0.1739 0-0.22751-0.0477-0.05362-0.15471 0.05362-0.20243 0-0.0477-0.05362 0.0214-0.15556 0-0.22751-0.48873-1.648 0.0583 0.3587-0.40483-0.68254-0.0301-0.06783 0.0405-0.16685 0-0.22751-0.17177-0.2574-0.424-0.43536-0.60727-0.68254-0.1558-0.21006-0.23282-0.48919-0.40485-0.68254-0.23855-0.26813-0.55354-0.43577-0.80969-0.68254-0.52431-0.50512-1.0147-1.2173-1.417-1.8201-0.14597-0.21875-0.29604-0.43797-0.40485-0.68254-0.0954-0.2145-0.14378-0.45195-0.2024-0.68254-0.0764-0.30066-0.16308-0.60051-0.20243-0.91005-0.0287-0.22523 0-0.45502 0-0.68254v-1.3651c0-0.21428-0.0384-1.0081 0-1.1376 0.0303-0.10175 0.15974-0.13158 0.20243-0.22751 0.0301-0.06783 0-0.15167 0-0.22751v-2.5026c0-0.204 0.0321-1.7119 0-1.8201-0.0303-0.10175-0.1349-0.15167-0.20243-0.22751-0.1349-0.15167-0.29899-0.27655-0.40485-0.45502-0.16738-0.28219-0.28598-0.59832-0.40485-0.91005-0.1681-0.44086-0.26989-0.91005-0.40483-1.3651-0.0675-0.22751-0.1349-0.45502-0.20243-0.68254-0.0675-0.22751-0.16735-0.44598-0.20242-0.68254-0.0443-0.29922 0-0.6067 0-0.91005v-0.22751c0-0.07585 0.0477-0.17388 0-0.22751-0.41882-0.47073 0.0164 0.71934-0.40485-0.22751-0.0303-0.06783 0.0302-0.15968 0-0.22751-0.0427-0.09593-0.15974-0.13158-0.20243-0.22751-0.0302-0.06783 0.0303-0.15968 0-0.22751-0.0427-0.09593-0.15974-0.13158-0.20242-0.22751-0.0307-0.06924 0-0.58008 0-0.68254 0-0.6067 0.0675 0.07584-0.20241-0.22751-0.0413-0.04651 0.0401-0.59233 0-0.68254-0.0897-0.20165-0.48443-0.47543-0.60727-0.68254-0.57554-0.97032 0.26826 0.07401-0.60726-0.91005-0.1349-0.15167-0.26991-0.30335-0.40485-0.45502-0.0675-0.07584-0.15976-0.13158-0.20243-0.22751-0.0302-0.06783 0-0.15167 0-0.22751" stroke-width="1.1826" fill="none"/>
        <path id="path5744" d="m218.24 51.506v3.1852c0 0.05518-0.006 0.67522 0 0.68254 0.0477 0.05363 0.15471-0.05363 0.20243 0 0.0711 0.07986-0.0699 0.98041 0 1.1376 0.0427 0.09593 0.1349 0.15167 0.20242 0.22751 0.0675 0.07584 0.11712 0.17955 0.20243 0.22751 0.0603 0.03392 0.14207-0.03392 0.20241 0 0.44758 0.25152 0.0628 0.14121 0.20242 0.45502 0.0427 0.09593 0.1349 0.15167 0.20243 0.22751 0.0675 0.07584 0.11197 0.1936 0.20242 0.22751 0.12804 0.04796 0.28414-0.06783 0.40485 0 0.0217 0.01209-0.0419 0.86291 0 0.91005 0.41881 0.47073-0.0164-0.71934 0.40484 0.22751 0.10838 0.24355-0.17528 0.48553 0.20242 0.91005 0.0477 0.05362 0.14207-0.03392 0.20242 0 0.0853 0.04796 0.1349 0.15167 0.20243 0.22751 0.0675 0.07585 0.15974 0.13158 0.20242 0.22751 0.0809 0.18201-0.0809 0.50053 0 0.68254 0.0997 0.22388 0.7101 0.68617 0.80969 0.91005 0.0302 0.06783-0.0477 0.17388 0 0.22751 0.0477 0.05362 0.14207-0.03392 0.20242 0 0.6173 0.34691-0.37021 0.18036 0.60728 0.45502 0.13084 0.03679 0.27391-0.03679 0.40483 0 0.29275 0.08226 0.52342 0.34777 0.8097 0.45502 0.12804 0.04796 0.30942-0.10726 0.40483 0 0.0477 0.05362-0.0302 0.15968 0 0.22751 0.11603 0.26083 0.42237 0.31647 0.60728 0.45502 0.0794 0.05949 0.11197 0.1936 0.20242 0.22751 0.12804 0.04796 0.28912-0.07804 0.40484 0 0.24548 0.16554 0.37826 0.48949 0.60727 0.68254 0.054 0.0455 0.1547-0.05362 0.20243 0 0.41882 0.47073-0.64001-0.0184 0.20242 0.45502 0.0603 0.03392 0.1547-0.05362 0.20243 0 0.0477 0.05362 0 0.15167 0 0.22751v1.1376c0 0.07584-0.0477 0.17388 0 0.22751 0.0477 0.05362 0.1547-0.05362 0.2024 0 0.3037 0.34133 0.20243 0.93353 0.20243 1.3651v1.1376c0 0.07584 0.0675 0.22751 0 0.22751s0-0.15167 0-0.22751" stroke-width="1.1826" fill="none"/>
        <path id="path5746" stroke-linejoin="round" d="m245.16 122.04v-1.1376c0-0.0758-0.0214-0.15556 0-0.22751 0.0954-0.32175 0.33166-0.58102 0.40485-0.91005 0.0327-0.14715 0-0.30335 0-0.45503v-1.1376c0-0.0552 0.006-0.67522 0-0.68254-0.0477-0.0536-0.14208 0.0339-0.20243 0-0.0853-0.048-0.11712-0.17955-0.20242-0.22751-0.0604-0.0339-0.14207 0.0339-0.20243 0-0.0853-0.048-0.11712-0.17955-0.20242-0.22751-0.0604-0.0339-0.15471 0.0536-0.20241 0s0.0477-0.17388 0-0.22751c-0.0477-0.0536-0.15471 0.0536-0.20243 0-0.10667-0.11991-0.0958-0.33512-0.20242-0.45503-0.10667-0.11991-0.27547-0.14026-0.40485-0.22751-0.41722-0.28136-0.7973-0.62869-1.2145-0.91005-0.12944-0.0873-0.28703-0.12158-0.40485-0.22751-0.89735-0.80686-0.31752-0.65896-1.417-1.3651-0.18526-0.11898-0.4243-0.10412-0.60726-0.22751-0.56344-0.37996-0.27847-0.41731-0.60727-0.91005-0.11447-0.1716-0.26989-0.30335-0.40484-0.45503-0.0675-0.0758-0.15975-0.13158-0.20242-0.22751-0.0309-0.0692 0-0.58007 0-0.68254v-1.1376c0-0.15167-0.0427-0.31113 0-0.45502 0.0477-0.16088 0.1547-0.29415 0.20242-0.45503 0.0607-0.20476-0.0607-0.47778 0-0.68254 0.06-0.2025 0.5472-0.48003 0.60726-0.68253 0.0853-0.28779-0.0853-0.62227 0-0.91005 0.21061-0.71014 0.1349 0.0758 0.40485-0.22752 0.0477-0.0536 0-0.15167 0-0.22751v-5.4603c0-0.22751 0.0557-0.46378 0-0.68254-0.49986-1.9663-0.35878 0.13499-0.60727-1.8201-0.0285-0.22523 0-0.45502 0-0.68254v-3.1852c0-0.05406 0.0228-0.85906 0-0.91005-0.0427-0.09593-0.15975-0.13158-0.20243-0.22751-0.0301-0.06783 0.0303-0.15968 0-0.22751-0.0427-0.09593-0.15974-0.13158-0.20241-0.22751-0.0954-0.2145-0.10698-0.46804-0.20242-0.68254-0.10886-0.24457-0.26991-0.45502-0.40485-0.68254-0.1349-0.22751-0.23282-0.48919-0.40485-0.68254-0.18587-0.20891-1.0104-0.75514-1.2145-1.1376-0.10979-0.20564-0.11836-0.46211-0.20242-0.68254-0.11884-0.31173-0.32195-0.58394-0.40483-0.91005-0.0557-0.21876 0-0.45502 0-0.68254v-6.8254c0-0.10247 0.0309-0.6133 0-0.68254-0.0427-0.09593-0.14956-0.13828-0.20243-0.22751-0.31947-0.53859-0.10542-0.57353-0.60727-1.1376-0.17202-0.19335-0.43525-0.26168-0.60726-0.45502-0.17203-0.19335-0.29606-0.43797-0.40485-0.68254-0.0627-0.14093 0.0599-0.84273 0-0.91005-0.0477-0.05362-0.15471 0.05362-0.20243 0-0.006-0.0074 0-0.62736 0-0.68254v-4.7778c0-0.10727 0.009-1.1273 0-1.1376-0.0477-0.05362-0.1547 0.05362-0.20242 0-0.10667-0.11991-0.11868-0.31393-0.20243-0.45502-0.0529-0.08924-0.15974-0.13158-0.20241-0.22751-0.0302-0.06783 0.0303-0.15968 0-0.22751-0.0427-0.09593-0.13489-0.15167-0.20242-0.22751-0.1349-0.15167-0.25217-0.32632-0.40485-0.45502-0.12071-0.10175-0.29816-0.1076-0.40485-0.22751-0.0954-0.10725 0.0603-0.31936 0-0.45502-0.0427-0.09593-0.15974-0.13158-0.20241-0.22751-0.0302-0.06783 0.0301-0.15968 0-0.22751-0.0427-0.09593-0.15975-0.13158-0.20242-0.22751-0.0604-0.13567 0.0603-0.31936 0-0.45502-0.0427-0.09593-0.15976-0.13158-0.20243-0.22751-0.0267-0.05982 0-0.79108 0-0.91005v-0.22751c0-0.07584-0.0675-0.22751 0-0.22751s0 0.30335 0 0.22751v-2.9577c0-0.15167 0.0427-0.31113 0-0.45502-0.0954-0.32175-0.30942-0.5883-0.40485-0.91005-0.0427-0.14389 0.0371-0.30919 0-0.45502-0.0998-0.39268-0.31672-0.74136-0.40485-1.1376-0.0491-0.22072 0-0.45502 0-0.68254 0-0.07584 0.0214-0.15556 0-0.22751-0.0477-0.16087-0.1547-0.29415-0.20241-0.45502-0.0402-0.13567 0-1.1446 0-1.3651v-0.68254c0-0.07584-0.0675-0.22751 0-0.22751s0 0.30335 0 0.22751v-0.68254" stroke-linecap="round" stroke-width="1.1826" fill="none"/>
      </g>
      <g id="g3111">
        <path id="path3013" fill="url(#linearGradient3125)" d="m23.24 188.57c6.913-15.123 12.526-32.449 26.049-38.286l40.743-36.034 34.731-6.7563 32.728 2.2521 26.049 9.0084 66.123 11.26 57.44-43.541 58.776-9.0084c22.709 1.3693 45.418 7.39 68.127 18.767l48.758 40.538 20.037 52.549-7.347 67.563c-14.917 33.025-29.833 59.54-44.75 82.577l-30.056 26.274-49.426 21.02c-42.746 13.375-85.493 6.8146-128.24 7.507l-32.06-7.507-63.452 1.5014-48.09-21.77-51.429-41.288-20.037-29.277-8.015-17.266-8.015-24.022v-26.274l12.022-38.286h0.66791"/>
        <path id="path3046" fill="url(#linearGradient3127)" d="m283.11 400.83c-27.606-0.50585-50.149-1.6454-51.464-2.6014-1.2866-0.9357-16.726-2.3388-34.309-3.1181-17.584-0.77925-37.584-1.6636-44.446-1.9653-7.7025-0.33859-16.309-2.041-22.493-4.4493-16.65-6.49-37.944-18.68-45.367-25.98-3.85-3.79-14.721-13.44-24.156-21.45-23.848-20.24-27.057-23.56-35.511-36.67-8.441-13.1-12.308-23.53-15.839-42.75-4.5982-25.02-2.0801-46 8.946-74.55 5.8766-15.216 8.0628-18.7 21.68-34.548 17.786-20.7 32.324-31.714 54.849-41.553l17.071-5.4407 22.881-0.46942c30.666-0.62914 34.465 1.8285 55.668 8.5101 14.583 4.5955 18.117 5.1661 21.443 3.4624 34.556 1.1826 8.7163 24.036 64.5-17.651 16.831-12.832 23.438-15.657 51.668-22.089 30.587-6.969 33.651-7.2138 44.404-3.5473 4.2105 1.4357 10.229 2.6102 13.373 2.6102 8.1925 0 36.221 9.7559 49.929 17.379 16.66 9.2644 22.366 13.639 38.208 29.292 11.846 11.705 15.08 16.118 20.731 28.294 18.167 39.142 16.467 84.542-5.0497 134.83-9.9385 23.23-15.613 32.673-31.153 51.841-20.377 25.134-34.717 34.801-72.052 48.571-8.4723 3.1248-18.211 6.9034-21.642 8.3968-12.036 5.239-31.297 6.5656-81.874 5.6388zm-17.18-12.2c1.419-2.98 0.15454-5.2323-9.1013-16.214-30.387-36.052-45.749-84.516-45.989-145.09-0.12617-31.901 2.9713-53.755 10.616-74.898 4.6662-12.906 4.8841-16.516 1.2192-20.205-3.1756-3.1967-17.926-6.5601-28.77-6.5601-6.7754 0-7.8342 0.55475-10.515 5.509-6.232 11.518-14.425 43.902-16.942 66.966-2.0971 19.215-2.1791 26.074-0.55559 46.461 2.4257 30.461 6.3304 47.163 16.656 71.244 8.706 20.303 14.845 31.738 24.594 45.807 3.251 4.6916 8.1938 12.08 10.984 16.418 3.7321 5.8026 6.4982 8.2113 10.464 9.1121 25.978 5.9004 35.052 6.2527 37.339 1.4497zm84.012-1.8674c5.6791-3.5874 7.6883-6.4924 12.965-18.744 3.7179-8.6333 8.5186-24.602 11.867-39.472 5.4559-24.232 5.6199-25.908 5.5304-56.524-0.0978-33.45-0.85612-38.399-10.623-69.317-9.5219-30.145-24.495-56.126-49.399-85.72-12.802-15.213-15.507-17.614-19.839-17.614-11.581 0-18.855 8.0879-19.996 22.233l-0.82473 10.223 12.032 20.143c14.949 25.026 24.413 45.947 31.199 68.969 6.2219 21.107 8.5991 41.137 8.5591 72.118-0.0351 27.24-3.0449 44.527-12.29 70.586-3.5125 9.9008-6.3863 18.91-6.3863 20.019 0 1.1098 1.2281 3.547 2.7292 5.416 4.0663 5.0633 25.023 3.6557 34.476-2.3155zm-64.315 1.0456c0.47501-1.3913-0.65494-11.448-2.511-22.348-3.1753-18.648-13.202-84.103-17.938-117.1-1.1761-8.1944-3.1832-20.026-4.4603-26.292-1.2771-6.2663-3.1617-18.887-4.188-28.045-5.2574-46.917-7.7244-55.214-16.417-55.214-6.796 0-10.428 7.9112-16.833 36.668-5.3272 23.918-5.6744 27.167-5.6763 53.124-0.002 28.633 1.7816 41.929 9.5884 71.468 4.2186 15.962 17.055 44.106 24.516 53.75 3.2332 4.1792 8.1894 11.418 11.014 16.086 8.6031 14.218 14.156 20.434 18.254 20.434 2.0824 0 4.1748-1.1383 4.6498-2.5296zm17.413-1.4142c5.7572-13 17.605-58.473 19.325-74.171 3.7937-34.627 0.45814-71.521-8.864-98.043-9.9537-28.319-29.423-67.607-37.568-75.809-4.5476-4.5796-9.461-5.0341-14.188-1.3124-4.8601 3.8261-5.7167 11.393-3.0278 26.746 1.3068 7.4617 3.1762 19.482 4.1542 26.713 0.97803 7.2304 4.1474 26.95 7.0431 43.82 2.8957 16.871 7.4305 44.478 10.077 61.348 2.6469 16.871 6.5361 40.737 8.6427 53.036s3.8302 26.168 3.8302 30.82c0 4.6521 0.46785 8.9841 1.0397 9.6268 2.3103 2.5966 7.875 0.97725 9.5369-2.7753zm-96.662-5.8675c0.27976-2.2016-1.9603-7.1282-5.5839-12.281-9.5122-13.525-18.222-29.863-27.513-51.609-9.1344-21.379-11.708-33.551-14.951-70.718-3.1506-36.109 3.4583-84.418 15.088-110.28 2.0937-4.657 3.3857-9.8706 2.8852-11.643-1.5323-5.4262-9.8337-7.9687-26.019-7.9687-13.708 0-15.437 0.37696-19.005 4.1444-6.0496 6.3878-14.3 25.519-21.335 49.471-8.3284 28.357-11.517 49.198-10.302 67.329 1.9772 29.492 3.9976 49.324 5.6769 55.723 3.1356 11.948 13.739 40.743 20.98 56.975 3.9016 8.7461 7.0938 16.588 7.0938 17.426 0 0.83853 2.2926 4.0221 5.0948 7.0747 7.4619 8.1288 18.948 10.737 45.589 10.352 20.879-0.30168 21.854-0.47615 22.3-3.992zm187.92-7.445c7.8903-3.7067 16.63-7.7477 19.422-8.98 12.625-5.5735 21.886-28.19 28.013-68.416 4.5223-29.687 4.2799-46.538-1.0838-75.371-6.7013-36.022-20.122-71.876-33.69-90.002-20.952-27.991-32.119-41.206-37.039-43.83-9.6921-5.1693-40.765-2.0853-50.388 5.0008-5.4178 3.9899-4.5455 8.2249 3.7284 18.102 34.008 40.598 46.792 64.167 58.8 108.41l5.7922 21.339-0.65779 39.133c-0.59236 35.241-1.07 40.927-4.8025 57.178-2.2796 9.9247-5.5515 21.516-7.2709 25.758-3.1384 7.7432-4.025 15.075-2.0865 17.254 2.1018 2.3623 7.2432 1.0153 21.263-5.5709zm-267.15-4.2156c-0.002-2.1691-2.3289-8.282-5.1704-13.584-6.747-12.59-17.046-38.229-21.123-52.584-4.5992-16.195-8.0122-44.769-8.0122-67.078 0-22.776 4.2729-48.698 11.19-67.888 6.9202-19.198 7.528-22.111 5.3221-25.501-1.776-2.7299-2.2906-2.7418-6.7391-0.15635-4.8688 2.8299-9.2439 8.6747-24.573 32.828-12.914 20.348-21.013 55.069-21.019 90.111-0.0041 23.035 2.2553 37.248 8.7771 55.214 5.7118 15.735 9.1242 20.372 23.606 32.076 24.192 19.553 37.75 25.503 37.741 16.565zm324.7-37.685c12.612-15.131 33.562-58.6 39.687-82.344 4.9897-19.345 8.6009-43.306 7.411-49.174-4.409-21.745-12.236-44.871-18.335-54.175-13.585-20.724-51.846-48.086-77.597-55.493-17.557-5.0502-18.354-0.28504-3.2293 19.321 6.5897 8.5421 14.529 19.462 17.643 24.265 18.871 29.112 35.665 87.23 35.665 123.42 0 16.685-5.3083 54.994-9.4315 68.066-3.4474 10.929 1.2495 14.436 8.1872 6.1129zm-396.42-14.35c0-1.8667-1.7535-11.529-3.8968-21.472-4.657-21.605-4.9043-37.67-0.93939-61.022 3.9564-23.302 10.851-48.679 15.478-56.966 7.4612-13.365 22.241-36.09 31.218-41.501 10.709-6.4552 22.081-11.39 22.081-14.655 0-8.1253-13.512-6.0144-31.158 4.8678-37.036 22.839-56.322 48.09-67.689 88.626-5.2316 18.656-5.2786 31.787-0.18476 51.536 5.0973 19.762 12.321 35.358 21.145 45.655 7.5847 8.8504 13.947 11.1 13.947 4.9319z"/>
      </g>
    </g>
  </g>
  <metadata>
    <rdf:RDF>
      <cc:Work>
        <dc:format>image/svg+xml</dc:format>
        <dc:type rdf:resource="http://purl.org/dc/dcmitype/StillImage"/>
        <cc:license rdf:resource="http://creativecommons.org/licenses/publicdomain/"/>
        <dc:publisher>
          <cc:Agent rdf:about="http://openclipart.org/">
            <dc:title>Openclipart</dc:title>
          </cc:Agent>
        </dc:publisher>
        <dc:title>Pumpkin</dc:title>
        <dc:date>2013-10-10T18:09:28</dc:date>
        <dc:description>freehand pumpkin</dc:description>
        <dc:source>https://openclipart.org/detail/184755/pumpkin-by-arvin61r58-184755</dc:source>
        <dc:creator>
          <cc:Agent>
            <dc:title>Arvin61r58</dc:title>
          </cc:Agent>
        </dc:creator>
        <dc:subject>
          <rdf:Bag>
            <rdf:li>Halloween</rdf:li>
            <rdf:li>food</rdf:li>
            <rdf:li>freehand</rdf:li>
            <rdf:li>fruit</rdf:li>
            <rdf:li>garden</rdf:li>
            <rdf:li>holiday</rdf:li>
            <rdf:li>plant</rdf:li>
            <rdf:li>pumpkin</rdf:li>
            <rdf:li>vegetable</rdf:li>
          </rdf:Bag>
        </dc:subject>
      </cc:Work>
      <cc:License rdf:about="http://creativecommons.org/licenses/publicdomain/">
        <cc:permits rdf:resource="http://creativecommons.org/ns#Reproduction"/>
        <cc:permits rdf:resource="http://creativecommons.org/ns#Distribution"/>
        <cc:permits rdf:resource="http://creativecommons.org/ns#DerivativeWorks"/>
      </cc:License>
    </rdf:RDF>
  </metadata>
</svg>